<mxfile host="app.diagrams.net" modified="2021-05-07T19:14:50.390Z" agent="5.0 (Windows NT 10.0; Win64; x64) AppleWebKit/537.36 (KHTML, like Gecko) Chrome/90.0.4430.93 Safari/537.36" etag="AtQx7Ykk2YjQ14KafADt" version="14.6.10" type="github">
  <diagram id="J8dZaeaEgh_olyX8ZrDC" name="DFD">
    <mxGraphModel dx="832" dy="689" grid="1" gridSize="10" guides="1" tooltips="1" connect="1" arrows="1" fold="1" page="1" pageScale="1" pageWidth="827" pageHeight="1169" math="0" shadow="0">
      <root>
        <mxCell id="0" />
        <mxCell id="1" parent="0" />
      </root>
    </mxGraphModel>
  </diagram>
</mxfile>
